<svg xmlns="http://www.w3.org/2000/svg" id="Слой_1" data-name="Слой 1" viewBox="0 0 90.97 58.91"><defs><style>.cls-1{fill:#55164a}.cls-3{fill:#ebebeb}</style></defs><path d="M65.73 14a20.13 20.13 0 0 0 5 1.82c.3.06.69.09.86-.16s-.13-.78-.48-1a17 17 0 0 0-3.07-1.4c1-.57 3.48-1.48 3-2.36s-3.93 1-5.34 2.38" class="cls-1"/><path d="M.17 8.87c1.09-.93 3.5 1.13 4.44 2.66-.46-1.61-1.48-4.38-.63-5S7.06 8 7.91 9.4c-.77-1.54-1.2-4.39 0-5s2.9 2.46 4 4c-.42-1.35-1.91-4.8-.51-5.09 1.65-.32 6.81 9.63 9.78 17.33a12.47 12.47 0 0 0 7.82-.38c8.19-2.78 13-13.8 24-15a9.23 9.23 0 0 1-1.58-3.51c-.1-.48-.09-1.1.35-1.3s1 .27 1.28.72a22.89 22.89 0 0 1 1.62 3l1.29-2.36a.72.72 0 0 1 .34-.37c.46-.19.72.52.68 1a13.28 13.28 0 0 1-.51 2.8c4.26.4 12.45 3.94 11.87 16-.57 10.23-7.34 18.26-16.26 21.9-10 4.11-21.62 2.17-28.9-3.94A25.68 25.68 0 0 1 15.34 28C7.4 21.62-1.34 10.15.17 8.87Z" style="fill:#0f9390"/><path d="m46.84 54.22-.33-10.79a.19.19 0 1 1 .37 0l.32 10.64 4.57.88a.18.18 0 0 1 .14.22.17.17 0 0 1-.18.14l-4-.77 3.5 2.8a.18.18 0 0 1 0 .25.16.16 0 0 1-.15.07.17.17 0 0 1-.11 0l-3.59-2.87 1.28 3.85a.18.18 0 0 1-.12.23h-.06a.19.19 0 0 1-.17-.12l-1.47-4.44Zm-7.05.07-.33-10.78a.19.19 0 0 1 .18-.19.18.18 0 0 1 .19.18l.32 10.64 4.57.88a.17.17 0 0 1 .14.21.19.19 0 0 1-.18.15l-4-.76 3.5 2.79a.19.19 0 0 1 0 .26.18.18 0 0 1-.15.07.21.21 0 0 1-.11 0l-3.59-2.87 1.28 3.85a.18.18 0 0 1-.12.23h-.06a.18.18 0 0 1-.17-.13l-1.46-4.47v-.05Z" class="cls-1"/><path d="M55.38 14.79A2.56 2.56 0 1 1 57.17 18a2.55 2.55 0 0 1-1.79-3.21ZM15.42 28.26a21.89 21.89 0 0 0 4.77 4.17c4.74 2.79 11.17 3.65 16.65 3.17a39 39 0 0 0 15.53-5.25c2.91-1.64 5.78-3.55 9.06-4.18a9.57 9.57 0 0 1 5.88.73 25.76 25.76 0 0 1-15.23 16.24c-10 4.11-21.62 2.17-28.9-3.94a25.82 25.82 0 0 1-7.76-10.94Z" class="cls-3"/><path d="M53.72 17.33c5.49 3.55 4.84 11.45 1.49 16S45.77 40 39.93 40.1c-4.55.09-11.29-2.57-15.38-7.43-2.52-3-4.25-8.24-4.25-8.24s5.91 3.19 13.9-2.07c5-3.29 11.58-10.18 19.52-5.03Z" class="cls-1"/><path d="M73.14 11.72c1 .8 3-.56 3.81-2.39 1.31-2.83-.2-5.23 4.17-8.41A6.92 6.92 0 0 1 88 .91a6.79 6.79 0 0 1 3 5.49 7.13 7.13 0 0 1-2 5.47A8.35 8.35 0 0 1 86.26 14c-4 1.67-8.34.79-13.22-2.16" class="cls-3"/><path d="M61.35 12.76c0 .43.32.75.63.72s.51-.4.47-.83-.32-.74-.63-.71-.51.4-.47.82ZM79.44 4l2.39-.42a.31.31 0 0 1 .21 0 .29.29 0 0 1 .11.18l.62 3.79a2 2 0 0 1 1.17-.69A1.71 1.71 0 0 1 86 8a1.72 1.72 0 0 1-1.46 1.9 1.77 1.77 0 0 1-2-.94.25.25 0 0 1-.1-.16l-.77-4.68-2.11.37a.29.29 0 0 1-.32-.22.28.28 0 0 1 .2-.27Z" class="cls-1"/></svg>