<svg xmlns="http://www.w3.org/2000/svg" xml:space="preserve" version="1.0" viewBox="0 0 549.5 383"><path fill="#B4A2CE" d="M265.9 122.8c-69.3-34.7-130.5 26.3-130.5 26.3l50.7 189.2s61.3-61 130.5-26.3c42.7-64.7 122.6-41.5 122.6-41.5L388.5 81.3s-79.9-23.2-122.6 41.5z"/><path fill="#FFF5EF" d="M189.6 328.6s57.7-60.1 126.9-25.4l-49.2-183.6C198 84.9 140.4 145 140.4 145l49.2 183.6zM440 261.5s-80-23.2-122.6 41.5l-49.2-183.6c42.7-64.7 122.6-41.5 122.6-41.5L440 261.5z"/><g fill="none" stroke="#887772" stroke-miterlimit="10" stroke-width=".723"><path d="M255.8 126.9c-45.5-14.6-84.2 9-101.7 22.7"/><path d="M256.9 131.1c-45.5-14.6-84.2 9-101.7 22.7"/><path d="M258 135.3c-45.5-14.6-84.2 9-101.7 22.7"/><path d="M259.2 139.5c-45.5-14.6-84.2 9-101.7 22.7"/><path d="M260.3 143.6c-45.5-14.6-84.2 9-101.7 22.7m106.2-5.9c-45.5-14.6-84.2 9-101.7 22.7"/><path d="M265.9 164.6c-45.5-14.6-84.2 9-101.7 22.7"/><path d="M267 168.8c-45.5-14.6-84.2 9-101.7 22.7"/><path d="M268.1 173c-45.5-14.6-84.2 9-101.7 22.7"/><path d="M269.3 177.2c-45.5-14.6-84.2 9-101.7 22.7m106.1-6c-45.5-14.6-84.2 9-101.7 22.7"/><path d="M274.9 198.1c-45.5-14.6-84.2 9-101.7 22.7"/><path d="M276 202.3c-45.5-14.6-84.2 9-101.7 22.7"/><path d="M277.1 206.5c-45.5-14.6-84.2 9-101.7 22.7"/><path d="M278.2 210.7c-45.5-14.6-84.2 9-101.7 22.7m106.2-6c-45.5-14.6-84.2 9-101.7 22.7"/><path d="M283.8 231.6c-45.5-14.6-84.2 9-101.7 22.7"/><path d="M285 235.8c-45.5-14.6-84.2 9-101.7 22.7"/><path d="M286.1 240c-45.5-14.6-84.2 9-101.7 22.7"/><path d="M287.2 244.2c-45.5-14.6-84.2 9-101.7 22.7m106.2-6c-45.5-14.6-84.2 9-101.7 22.7"/><path d="M292.8 265.1c-45.5-14.6-84.2 9-101.7 22.7"/><path d="M294 269.3c-45.5-14.6-84.2 9-101.7 22.7"/><path d="M295.1 273.5c-45.5-14.6-84.2 9-101.7 22.7"/><path d="M296.2 277.7c-45.5-14.6-84.2 9-101.7 22.7m87.8-180.6c32.1-35.4 77.4-34.3 99.5-31.2"/><path d="M283.4 124c32.1-35.4 77.4-34.3 99.5-31.2"/><path d="M284.5 128.2C316.6 92.8 361.9 93.9 384 97"/><path d="M285.6 132.4C317.8 97 363 98 385.1 101.2"/><path d="M286.7 136.6c32.1-35.4 77.4-34.3 99.5-31.2m-95 47.9c32.1-35.4 77.4-34.3 99.5-31.2"/><path d="M292.4 157.5c32.1-35.4 77.4-34.3 99.5-31.2"/><path d="M293.5 161.7c32.1-35.4 77.4-34.3 99.5-31.2"/><path d="M294.6 165.9c32.1-35.4 77.4-34.3 99.5-31.2"/><path d="M295.7 170.1c32.1-35.4 77.4-34.3 99.5-31.2m-95 47.9c32.1-35.4 77.4-34.3 99.5-31.2"/><path d="M301.3 191c32.1-35.4 77.4-34.3 99.5-31.2"/><path d="M302.5 195.2c32.1-35.4 77.4-34.3 99.5-31.2"/><path d="M303.6 199.4c32.1-35.4 77.4-34.3 99.5-31.2"/><path d="M304.7 203.6c32.1-35.4 77.4-34.3 99.5-31.2m-95 47.9c32.1-35.4 77.4-34.3 99.5-31.2"/><path d="M310.3 224.5c32.1-35.4 77.4-34.3 99.5-31.2"/><path d="M311.4 228.7c32.1-35.4 77.4-34.3 99.5-31.2"/><path d="M312.6 232.9c32.1-35.4 77.4-34.3 99.5-31.2"/><path d="M313.7 237.1c32.1-35.4 77.4-34.3 99.5-31.2m-95 47.9c32.1-35.4 77.4-34.3 99.5-31.2"/><path d="M319.3 258c32.1-35.4 77.4-34.3 99.5-31.2"/><path d="M320.4 262.2c32.1-35.4 77.4-34.3 99.5-31.2"/><path d="M321.5 266.4c32.1-35.4 77.4-34.3 99.5-31.2"/><path d="M322.7 270.6c32.1-35.4 77.4-34.3 99.5-31.2"/></g><path fill="#4E4EA1" d="M85.1 109.2c-3.4-1.3-7.5-1.1-11.5.7-1.6-2.9-3.2-5.8-4.6-8.4.1-.1.2-.3.2-.4 1-1.9 2-3.6 2.7-5.2C75 89.4 75 82.2 71.8 74c-.1-.2-.2-.4-.3-.7-2.5-6-5.5-8-7.4-8.5-2-.5-3.9.2-5.4 2-2.8 3.5-4.2 11.4-1.1 19.6.2.4.3.9.5 1.3.8 1.9 2.5 5.1 4.7 9.1-3.8 7.3-9.3 19.2-4.5 31.6 1.6 4.2 4.9 7.6 9.4 9.6 4.4 2 9.4 2.5 13.8.8 1.2-.4 2.3-1 3.4-1.8.5 1.1 1 2.1 1.4 3 .2.4.4 1 .7 1.8 1 2.6 2.2 7.1.9 10.5-.6 1.8-1.9 3.1-3.8 3.8-.9.3-1.9.5-2.7.4 1.3-1.3 1.8-3.3 1.1-5.3-1-2.8-4.1-4.3-6.9-3.5-2.8.8-4.3 3.4-3.2 6.1.3.7.7 1.3 1.2 1.9 3.2 3.5 8.3 5 12.6 3 2.6-1.2 4.3-3.4 5.1-6.2.9-3.2.6-7.2-.9-11.3-.4-1.2-.9-2.4-1.6-3.6-.3-.5-.7-1.4-1.4-2.6 4.7-4.5 7.5-11.2 5.4-17.3-1.6-4.2-4.2-7.1-7.7-8.5zm-2.4 6.3c1.8.8 3.2 2.4 4.2 5 1.1 3 1.2 6 .3 8.6-.4 1-.9 2-1.5 2.8-1.4-2.5-3-5.6-4.9-9-1.3-2.3-2.6-4.7-4-7.2 2.3-.8 4.3-.9 5.9-.2zm-19.4 12.2c-3-7.9.3-15.9 3.9-22.9.6 1.1 1.3 2.2 1.9 3.4.6 1.1 1.2 2.2 1.9 3.3-4.7 3.6-4.9 9.1-3.7 12.4.1.2.1.3.2.5 1.7 3.8 5.6 5.1 7.2 5.5.3.1.6-.1.7-.3.1-.2.1-.3 0-.5 0-.1-.1-.2-.2-.3-1.2-1-2.1-2.3-2.6-3.8-.5-1.3-.7-2.8-.5-4.1.2-1.1.7-2.6 2.1-3.8 3.4 6 6.6 11.9 9.2 17-.9.6-1.9 1.2-3 1.6-8.4 3.1-14.9-2.3-17.1-8zM61.8 88c-2.2-6-.2-13.8 2.3-16.8.8-1 1.7-1.5 2.4-1.3.8.2 1.3 1.2 1.7 2.1 1.8 4.4 1.4 12.6-3.3 21.3l-.2.4c-1.1-2.1-1.9-3.6-2.4-4.6-.2-.4-.3-.8-.5-1.1z"/><path fill="#AA856D" d="M192.6 197c-1.5-.8-3.4-.8-4.9-.1.7-5 1.4-10.1 2.1-15.1 0-.3-.1-.5-.4-.5-.5 0-.9.1-1.4.1-.3 0-.5.3-.6.6-1.6 9.5-2.9 19-3.8 28.6v.3s0 .1.1.1l.1.1.1.1s.1 0 .1.1h.1c3.6.5 9.9-3.9 10.7-9.2.4-2.2-.4-4.1-2.2-5.1zm-6.5 12c.3-2.9.7-5.8 1.1-8.6.9-.2 2.6-.4 3.4.4.5.4.7 1.1.5 2.1-.4 2.9-3 5.2-5 6.1zm224 85.7c.2 0 .4-.1.4-.3.4-1.3.8-2.7 1.2-4 0-.2 0-.3-.1-.5s-.3-.3-.4-.3c-.5 0-1-.1-1.5-.1.8-2.4 1.5-4.8 2.3-7.3.1-.3 0-.6-.3-.7l-1.2-.6c-.2-.1-.5 0-.6.3-.9 2.8-1.8 5.5-2.7 8.3-.9 0-1.9.1-2.9.2.8-2.5 1.6-4.9 2.5-7.4.1-.3-.1-.5-.3-.6-.4-.1-.8-.2-1.3-.3-.3 0-.6.1-.7.4-.9 2.7-1.9 5.4-2.8 8.1l-2.1.3c-.2 0-.4.2-.5.4-.4 1.3-.9 2.6-1.3 4-.1.2 0 .3.1.5.1.1.3.2.4.2.5 0 1.1-.1 1.6-.1-.8 2.3-1.5 4.6-2.2 6.9h-2c-.2 0-.4.1-.4.3-.4 1.3-.8 2.7-1.2 4-.1.2 0 .3.1.5s.2.3.4.3c.5 0 1 .1 1.5.1-.6 1.9-1.2 3.9-1.8 5.8-.1.3 0 .6.3.7.4.2.8.4 1.1.6.2.1.5 0 .6-.3.7-2.3 1.5-4.5 2.2-6.8.9 0 1.9-.1 2.8-.2-.7 2-1.3 3.9-2 5.9-.1.3.1.5.3.6.4.1.8.2 1.3.3.3 0 .6-.1.7-.4.8-2.2 1.5-4.4 2.3-6.7l2.1-.3c.2 0 .4-.2.5-.4.4-1.3.9-2.6 1.3-3.9.1-.2 0-.3-.1-.4-.1-.1-.3-.2-.4-.2-.5.1-1.1.1-1.6.2.8-2.3 1.5-4.6 2.3-6.9.8-.2 1.5-.2 2.1-.2zm-6.8 7.2c-1 .1-1.9.2-2.9.2.8-2.3 1.5-4.7 2.3-7 1-.1 1.9-.2 2.9-.2-.7 2.3-1.5 4.7-2.3 7z"/><path fill="#4BB16A" d="M453.1 166.5c-1.2-1.7-2.3-3.2-2.8-4.3V161c0-.3-.2-.5-.5-.5h-1.1c-.3 0-.5.2-.5.5v34.9c-.7-.4-1.4-.7-2.3-.8-2-.2-4.2.5-6 1.8-3.1 2.4-3.9 6.1-1.8 8.8 2.1 2.7 6.1 3.1 9.2.4 2.1-1.8 3.3-4.4 3.1-6.6v-27.1l.2.2c5.1 4.1 8.6 6.8 8.6 12.8 0 3.8-1.6 9.6-5 13.2-.2.2-.2.5 0 .7.2.2.5.2.7 0 3.9-3.8 6.8-10.4 6.8-14 0-7-5.1-13.8-8.6-18.8z"/><path fill="#5AB86D" d="M132.8 237.8c-2.3-2.2-4.4-4.2-5.6-5.8-.1-.6-.3-1.3-.4-1.9-.1-.4-.5-.7-.9-.7-.6.1-1.1.2-1.7.3-.4.1-.7.5-.6.9 3.4 18 6.9 36 10.3 53.9-1.1-.5-2.4-.6-3.8-.5-3.2.2-6.4 2-8.8 4.6-4.1 4.6-4.2 10.6-.2 14.1s10.3 2.9 14.3-2.1c2.7-3.4 3.7-7.8 2.8-11.2v-.2c-2.6-13.8-5.3-27.7-8-41.5.1.1.3.1.4.2 9.1 4.8 15.3 7.9 17.1 17.3 1.1 5.9.3 15.3-3.8 21.9-.2.4-.1.9.2 1.1.3.2.8.1 1.1-.2 5-7 7.5-18.1 6.4-23.6-2-11-11.9-19.9-18.8-26.6zM265.6 17.7c-.5-1.9-1-3.7-1.1-4.9.1-.4.3-.8.4-1.1.1-.3 0-.5-.3-.6-.3-.1-.7-.3-1-.4-.2-.1-.5 0-.6.3-4 10.6-8.1 21.2-12 31.9-.5-.6-1.1-1.1-1.8-1.5-1.8-.9-4-1-6.1-.4-3.7 1.1-5.6 4.2-4.7 7.4 1 3.2 4.5 4.9 8.2 3.5 2.6-.9 4.5-2.9 5.1-5l.1-.1c3.1-8.2 6.2-16.4 9.3-24.5 0 .1.1.2.1.2 3.3 5.5 5.5 9.2 3.4 14.7-1.3 3.5-4.8 8.2-9.1 10.3-.2.1-.4.4-.3.6.1.2.4.3.6.2 4.9-2.1 9.8-7.1 11.1-10.4 2.5-6.5.2-14.4-1.3-20.2z"/><path fill="#319F2D" d="M367.5 174.6c-13.3-2.9-26.4-5.4-39.1-6.8-.1 0-.3 0-.4.1-.1.1-.2.2-.2.4v.5c-.1 1.3-.1 2.6-.2 3.9-.4 9-.6 18.1-.4 27.1-.7-.4-1.5-.7-2.3-.8-2-.2-4.3.5-6 1.9-1.8 1.4-2.8 3.3-2.9 5.3v.5c.1 1.1.5 2.2 1.3 3 .9 1 2.1 1.6 3.4 1.9 2 .3 4.1-.3 5.8-1.8 1.7-1.4 2.8-3.5 2.9-5.5v-.5c-.3-10.2-.2-20.3.2-30.5 12 1.5 24.2 3.7 36.5 6.1.4 7.9.4 15.7 0 23.6-.6-.4-1.4-.6-2.3-.6-2-.1-4.3.7-6.1 2.3-1.9 1.6-3.1 3.6-3.3 5.7-.2 1.4.1 2.7.9 3.6.7.9 1.8 1.5 3.2 1.5 1.9.1 4.1-.8 6-2.5 2.1-1.8 3.4-4 3.6-6v-.1c.7-9.2.7-18.4.2-27.6 0-.7-.1-1.5-.1-2.2 0-.7-.1-1.4-.1-2.1-.2-.1-.4-.3-.6-.4z"/><path fill="#DE60AD" d="M249.6 155.5c-.4-.1-.7-.2-1.1-.3-.3-.1-.5.1-.5.4.2 11.2.3 22.3.2 33.5-2.2-1.1-5.7-.5-8.4 1.5-3.2 2.3-4 5.8-2 8.7.8 1.2 1.9 2 3.3 2.3 2 .4 4.1-.5 5.9-2.3 2-2 3.1-4.5 3.2-6.5v-.1c.2-12.2.2-24.4-.2-36.5.1-.3-.1-.6-.4-.7zM431 76.6c-.4-.2-.9-.5-1.3-.7-.3-.2-.6 0-.7.4-2.7 14.5-5.6 29-8.7 43.4-2.6-2-7.2-2.2-11.2-.3-4.7 2.2-6.7 6.4-4.9 10.8.7 1.7 2 3.1 3.7 3.9 2.4 1.1 5.4.5 8.2-1.4 3.1-2.1 5.3-5 5.9-7.6v-.1c3.6-15.7 6.7-31.5 9.5-47.4 0-.4-.2-.8-.5-1z"/><path fill="#FFBF00" d="M116.8 87.2c-.8-.1-1.6-.2-2.4-.4v-.1c.1-.2.1-.3.2-.5 3.7-11.9 7.1-23.9 10.3-36 .1-.3-.1-.6-.3-.7-.3-.2-.7-.3-1-.5-.3-.1-.5 0-.6.3-3 10.9-6 21.8-9.3 32.6-1.8-1.8-5.3-2.3-8.4-1-1.3.5-2.5 1.3-3.3 2.3-.8-.3-1.6-.7-2.3-1-.3-.1-.5 0-.6.3-.1.4-.2.7-.3 1.1-.1.3.1.6.3.7.6.3 1.2.6 1.8.8v.1c-.1.2-.1.3-.2.5-.3 1.1-.2 2.3.2 3.4 1.2 3.2 5 4.4 8.9 2.4 1.4-.7 2.6-1.6 3.5-2.7 1 .2 2 .3 3 .4.3 0 .6-.2.7-.4.1-.3.2-.7.3-1-.1-.3-.2-.5-.5-.6z"/><path fill="#FF2F06" d="m313.5 42.7-.9-.6c-.2-.2-.5-.1-.6.2-3.4 10.6-7 21.2-10.7 31.7-1.7-1.8-5.2-2.4-8.4-1.3-3.8 1.2-5.6 4.2-4.7 7.6.9 3.5 4.6 5.1 8.7 3 2.5-1.3 4.4-3.3 5.2-5.1v-.1c4.2-11.5 8.1-23 11.7-34.6.1-.3 0-.7-.3-.8zm-23.1 37.8c-.3-.2-.4-.4-.5-.6-.1-.2 0-.5.1-.8.5-1.1 2.1-2.1 4.2-2.9 2.9-1.1 5.6-1.1 6-.3.4.8-1.5 2.9-4.5 4.2-2.2.9-4.3 1-5.3.4z"/><path fill="#F54394" d="M220.4 24.8c-1-1.6-1.6-2.5-1.6-3.3 0-.8 1.1-2.5 2.1-4 1.4-2.2 3.1-4.5 3-6.4 0-1.6-5.2-8.4-8.2-11-.2-.1-.4-.1-.6.1-.1.1-.2.3-.2.4 0 .1 0 .2.1.2 2.3 4.2 3.7 7.6 3.7 9.7 0 .5-1.3 2.6-2.3 4.1-2 3.2-3.3 5.1-3.3 6.3 0 .7.9 1.5 2.6 3.3 1 1 2 2 2.9 3-1.3-.2-2.6-.1-3.5.3-.9.4-1.5 1-1.7 1.8-.7 2.6 2.3 5.2 4.7 6.7l.1.1c.2.1.5.1.6-.2.1-.2.1-.5-.1-.7-1.8-1.7-1.5-3.1-1.1-4 .6-1.3 2-1.5 4.9-1.4.2 0 .4-.1.5-.3.1-.2.1-.4 0-.5-1-1.7-1.9-3.2-2.6-4.2z"/><path fill="#B0DD70" d="M378.1 63.7c-3.5-11.7-7.3-23.2-11.4-34.7-.1-.3-.4-.5-.7-.5h-1.1c-.3 0-.4.2-.3.5 3.6 10.6 7.1 21.2 10.5 31.8-.7-.1-1.5-.1-2.4.2-2 .5-3.8 1.9-5.1 3.8-2.3 3.2-2 6.7.8 8.9 1.1.9 2.5 1.3 3.8 1.2 2-.2 3.7-1.7 4.9-4 1.3-2.5 1.6-5.3 1.1-7.2-.1.1-.1 0-.1 0zm7.1 3.4c-.2-.6-.6-1.1-1.2-1.4-.6-.3-1.2-.3-1.8-.1-1.2.4-1.9 1.7-1.5 2.9.4 1.2 1.7 1.9 2.9 1.5 1.3-.4 2-1.7 1.6-2.9z"/><path fill="#5787BD" d="M235.3 271.7c-.2-.2-.5-.3-.7-.2-.2.1-.3.4-.2.7 2.2 3.8 3 6.7 3.1 11.4 0 4.7-4 8.3-9 11.2-.2-8.3-.3-16.7-.3-25 2.2 1.1 5.7.5 8.3-1.6 1.8-1.4 2.9-3.1 3-5 .1-1.3-.3-2.6-1.1-3.8-2-3-6.1-3.3-9.2.1-1.8 1.9-2.9 4.2-3.1 6.2v.7c-.1 12.4.1 24.8.6 37.2 0 .3.2.6.5.6.4.1.7.2 1.1.3.3.1.5-.1.5-.4 0-.8 1.4-2.3 2.9-4.2 3.3-4 8.1-10.5 8.1-16.6-.1-3.3-1.7-7.6-4.5-11.6z"/><path fill="#4E4EA1" d="M488.3 292.5c-.8-2.2-1.5-4.2-1.3-4.9.1-.3 0-.6-.3-.7-.3-.1-.7-.3-1-.4-.2-.1-.5 0-.6.3-4.2 10.9-8.4 21.7-12.5 32.6-.5-.6-1.1-1.1-1.9-1.6-1.8-.9-4.1-1.1-6.3-.5-3.8 1.1-5.8 4.3-4.8 7.5 1 3.3 4.6 5.1 8.4 3.7 2.6-.9 4.6-3 5.3-5.1l.1-.1c2.1-5.5 4.3-11 6.4-16.5.1.2.3.4.4.5 1.8 2.4 3.2 4.3 4 6.2-1 .8-2.2 1.5-3.5 2-.3.1-.4.4-.3.6.1.3.4.4.6.3 1.2-.3 2.5-.9 3.6-1.5.3 1.3.2 2.6-.4 4-1 2.6-4 6.2-7.9 7.7-.3.1-.4.4-.3.6.1.2.4.4.6.3 4.5-1.5 8.9-5.3 9.9-7.9.8-2 .9-4.2.6-6.4 1.8-1.4 3.1-3 3.6-4.3 1.8-5-.7-11.7-2.4-16.4zm-4.2 3.1c.1.2.3.4.4.5 3.3 4.6 5.5 7.8 3.9 11.9-.4 1-1 2-1.7 3-.6-2.6-1.6-5.2-2.5-7.4-.8-2.2-1.6-4.2-1.3-4.8.3-1 .7-2.1 1.2-3.2z"/><path fill="#71B6BA" d="M497.2 199.1c-2.1-1.2-4.3-2.4-4.5-3-.1-.3-.5-.5-.8-.4-.4.1-.9.3-1.3.4-.3.1-.5.5-.4.8 4.3 13.7 8.7 27.3 13 41-.9-.2-1.9-.3-3-.1-2.5.5-4.8 2.1-6.4 4.4-2.8 4-2.3 8.6 1.1 11 3.4 2.4 8.3 1.4 10.9-2.9 1.8-2.9 2.2-6.4 1.2-9v-.2c-1.6-5.2-3.3-10.5-4.9-15.7.2.1.5.1.7.1 3.7.8 6.6 1.3 8.7 2.6-.3 1.7-1 3.6-2.1 5.2-.2.3-.1.7.1.9.3.2.6.1.8-.1 1.1-1.4 2-3.1 2.6-4.7.6.7 1.1 1.5 1.4 2.6.9 2.8.6 7.7-1.9 11.6-.2.3-.1.7.1.9.3.2.6.1.8-.2 3.2-4.4 4.5-10.6 3.6-13.4-.6-1.9-1.7-3.5-3.1-4.9.4-2 .5-3.8.1-5-.6-1.9-1.8-3.5-3.2-4.9.4-1.9.4-3.7 0-4.9-1.7-5.6-8.6-9.4-13.5-12.1zm11.3 14.9c-2.5-1.9-5.5-3.4-8-4.7-2.1-1.1-4.3-2.3-4.5-2.9-.2-.5-.4-1.1-.5-1.6.2.1.5.1.7.2 6.2 1.5 10.4 2.6 11.9 7 .2.5.4 1.2.4 2zm3.3 10.1c-1.1-.8-2.2-1.5-3.3-2.1.5-.9 1-1.8 1.4-2.8.7.7 1.2 1.6 1.5 2.7.1.6.3 1.3.4 2.2zm-13-9.1c.2 0 .5.1.7.2 3.7.8 6.7 1.5 8.8 2.8-.2 1.1-.6 2.2-1.1 3.3-1.1-.6-2.3-1.2-3.3-1.7-2.1-1.1-4.3-2.2-4.6-2.9-.1-.6-.3-1.1-.5-1.7z"/><path fill="#8DD3C5" d="M196.1 95.9c-2-.1-4.2.8-6.1 2.4-1.9 1.6-3.1 3.7-3.3 5.7v.5c0 1.2.3 2.2.9 3 .7.9 1.8 1.4 3.2 1.5 1.9 0 4.1-.9 6-2.5 1.9-1.6 3.2-3.7 3.5-5.7 0-.2.1-.3.1-.5.5-6.8.7-13.7.8-20.5v-9.2c0-1-.1-2-.1-2.9 0-.2-.1-.4-.3-.5-15.9-6.9-31.7-14.4-46.4-20-.1-.1-.3 0-.5.1-.1.1-.2.3-.2.4 0 .4 0 .8-.1 1.3-.1 1.2-.1 2.4-.2 3.6 0 .9-.1 1.8-.1 2.7-.1 1.6-.1 3.3-.2 4.9-.2 6.6-.3 13.1-.3 19.7-2.2-1.4-5.7-.9-8.5 1.3-3.2 2.6-4.1 6.5-2 8.9.8 1 2 1.6 3.5 1.8 2 .3 4.2-.4 6-1.9 2-1.6 3.1-3.9 3.1-5.9V84c-.1-7.5 0-15 .2-22.6 4.3 1.7 8.7 3.5 13.1 5.4V86c-.7-.4-1.5-.7-2.3-.8-2-.2-4.3.6-6.1 2.1-1.8 1.5-3 3.5-3.1 5.5v.5c0 1.2.4 2.3 1.1 3.1.8 1 2 1.6 3.4 1.8 2 .2 4.2-.5 6-2 2-1.7 3.1-4 3.2-6V67.7c4.4 1.9 8.8 3.8 13.3 5.6 0 6.1 0 12.3-.1 18.4-2.2-1.3-5.7-.8-8.4 1.5-1.8 1.6-3 3.6-3.2 5.7-.1 1.4.2 2.7 1 3.7 2 2.5 6.1 2.2 9.3-.6 1.8-1.6 3.1-3.7 3.3-5.7v-.5c.2-7.2.3-14.3.2-21.5 4.4 1.9 8.9 3.7 13.3 5.5 0 5.6-.2 11.3-.5 16.9-.8-.5-1.6-.7-2.5-.8zm-40.9-42.2c4.2 1.6 8.5 3.4 12.9 5.3v1.7c-4.4-1.8-8.7-3.6-12.9-5.3v-1.7zm15 6.1c4.4 1.9 8.7 3.8 13.2 5.7v1.7l-13.2-5.7v-1.7zm15.3 6.7c4.4 1.9 8.9 3.8 13.3 5.7v1.6c-4.4-1.8-8.9-3.8-13.3-5.7v-1.6z"/><path fill="#F97CA0" d="M347.2 369.8c-2 0-4.2.9-6.1 2.5-1.8 1.6-3 3.7-3.2 5.8v.6c0 1.2.3 2.2 1 3 .8.9 1.9 1.4 3.2 1.4 1.9 0 4.1-1 6-2.7 1.9-1.7 3.1-3.8 3.4-5.7v-.5c.3-6.9.4-13.7.3-20.5 0-1.6-.1-3.2-.1-4.7 0-.9-.1-1.8-.1-2.7 0-.6-.1-1.2-.1-1.8 0-1-.1-2-.1-2.9 0-.2-.1-.4-.3-.5-16.1-6.6-32-13.7-46.9-19-.1-.1-.3 0-.5.1-.1.1-.2.3-.2.4v1.3c0 1.2-.1 2.4-.1 3.6 0 .9 0 1.8-.1 2.8 0 1.6-.1 3.3-.1 4.9-.1 6.6 0 13.1.1 19.7-2.3-1.3-5.8-.8-8.4 1.5-3.2 2.6-3.9 6.6-1.8 8.9.9 1 2.1 1.5 3.5 1.7 2 .2 4.2-.5 6-2 1.9-1.7 3-3.9 3-6v-.1c-.2-7.5-.3-15-.3-22.6 4.4 1.6 8.8 3.3 13.2 5.1.1 6.4.3 12.8.4 19.2-.7-.4-1.5-.6-2.3-.7-2-.1-4.3.7-6.1 2.2-1.8 1.6-2.9 3.6-3 5.6v.5c.1 1.2.5 2.2 1.2 3.1.9 1 2 1.6 3.4 1.7 2 .2 4.2-.6 6-2.2 2-1.7 3-4 3-6.1v-.1c-.2-7.5-.3-14.9-.5-22.4 4.4 1.8 8.9 3.6 13.4 5.3.2 6.1.3 12.3.3 18.4-2.2-1.3-5.7-.7-8.4 1.7-1.8 1.6-2.9 3.7-3.1 5.7-.1 1.4.3 2.7 1.1 3.7 2 2.4 6.1 2 9.3-.8 1.8-1.6 3-3.7 3.2-5.8v-.5c0-7.2-.1-14.3-.3-21.5 4.5 1.8 8.9 3.5 13.4 5.2.1 5.6.1 11.3-.1 16.9-.6-.5-1.4-.6-2.2-.7zm-41.9-41.3c4.3 1.6 8.6 3.2 13 5v1.7c-4.4-1.7-8.7-3.4-13-5v-1.7zm15.1 5.8c4.4 1.8 8.8 3.6 13.3 5.4 0 .6 0 1.1.1 1.7-4.5-1.8-8.9-3.6-13.3-5.4 0-.6 0-1.1-.1-1.7zm15.5 6.3c4.5 1.8 9 3.7 13.4 5.4 0 .5 0 1.1.1 1.6-4.5-1.8-9-3.6-13.4-5.4 0-.5-.1-1-.1-1.6z"/><path fill="#9BD46C" d="M493.9 127.5c-7.3-4.1-11.7-6.6-27.2-3-15.5 3.6-24.5-6.6-26.5-13.5l-1.9-6.9s-18.4-1.9-19.6-4c-1.2-2.1 15.4-3.4 20.1-3.2 0 0 3.2-6 8.9-5.6 7.3.5 8.5 3.8 9.2 7.6 0 0 .1-29.3 3-40.7 2.9-11.4 10-30 27.5-41.4 17.5-11.4 34.1-21.4 41.5-11.5 7.4 9.9-8.8 23.5-13.3 28.2 0 0 25.1-14.8 32.1-3.2 7 11.6-7.6 23.2-18.7 27.5-11.1 4.4-26.6 21.7-33.3 33.8-6.8 12.1-11.5 17.2-11.5 17.2s-.7 2 2 1 23.5-1.1 26 0-2.6 9.6-7.1 14.5c-4.6 4.9-7 5.6-8.7 4.8-1.8-.9-2.5-1.6-2.5-1.6z"/><path fill="#FFF" d="M451 101.8c-.6 1.1-2.1 1.5-3.2.9s-1.5-2.1-.9-3.2 2.1-1.5 3.2-.9 1.5 2 .9 3.2z"/><path fill="#FEA927" d="M66.2 309.6c6.8-5 10.9-7.9 26.7-6.2 15.8 1.7 23.6-9.5 24.7-16.6l1.1-7s18-4 19-6.3-15.7-1.6-20.3-.8c0 0-3.9-5.6-9.5-4.5-7.1 1.3-8 4.8-8.3 8.6 0 0-3.6-29.1-7.8-40-4.2-11-13.5-28.6-32.2-37.9-18.7-9.3-36.4-17.2-42.6-6.4-6.2 10.7 11.5 22.3 16.6 26.4 0 0-26.7-11.7-32.3.6-5.6 12.4 10.4 22.1 21.9 25.1 11.6 3 29 18.4 37.1 29.6 8.2 11.2 13.5 15.7 13.5 15.7s.9 1.9-1.9 1.3c-2.8-.6-23.5 1.7-25.9 3.1-2.3 1.4 3.7 9.2 8.8 13.5 5.1 4.3 7.6 4.7 9.2 3.7 1.5-1.2 2.2-1.9 2.2-1.9z"/><path fill="#FFF" d="M105.7 278.9c.8 1 2.2 1.3 3.3.5 1-.8 1.3-2.2.5-3.3-.8-1-2.2-1.3-3.3-.5-1.1.8-1.3 2.3-.5 3.3z"/></svg>