<svg xmlns="http://www.w3.org/2000/svg" xml:space="preserve" id="Layer_1" x="0" y="0" style="enable-background:new 0 0 676.7 519.1" version="1.1" viewBox="0 0 676.7 519.1"><style>.st1{fill:none;stroke:#3d0938;stroke-width:4;stroke-linecap:round;stroke-linejoin:round;stroke-miterlimit:10}.st2{fill:#e38980}.st6{fill:none;stroke:#3d0938;stroke-width:6;stroke-linecap:round;stroke-linejoin:round;stroke-miterlimit:10}.st7{opacity:.43;fill:#3d0938;enable-background:new}.st8{fill:#fff}.st9{fill:#cff}.st10{fill:#f0406f}.st11{fill:#d4907f}.st12{fill:none;stroke:#3d0938;stroke-width:5;stroke-linecap:round;stroke-linejoin:round;stroke-miterlimit:10}.st13{fill:#db2c62}.st18,.st19{fill:none;stroke:#3d0938;stroke-width:3;stroke-linecap:round;stroke-linejoin:round;stroke-miterlimit:10}.st19{stroke-width:2}</style><path id="XMLID_14_" d="M118.9 398.6c-12.7-31.3-19.4-65.1-19.4-100 0-70.8 27.6-137.4 77.6-187.4 50.1-50.1 116.6-77.6 187.4-77.6s137.4 27.6 187.4 77.6c25.5 25.5 45.1 55.2 58.3 87.6l29.2-11.9c-14.7-36.2-36.7-69.5-65.2-98C518.2 32.9 443.7 2 364.5 2S210.8 32.8 154.8 88.9c-56 56-86.9 130.5-86.9 209.7 0 39 7.5 76.8 21.7 111.8l29.3-11.8z" style="fill:#f5da8d"/><path id="XMLID_22_" d="M118.9 398.6c-12.7-31.3-19.4-65.1-19.4-100 0-70.8 27.6-137.4 77.6-187.4 50.1-50.1 116.6-77.6 187.4-77.6s137.4 27.6 187.4 77.6c25.5 25.5 45.1 55.2 58.3 87.6l29.2-11.9c-14.7-36.2-36.7-69.5-65.2-98C518.2 32.9 443.7 2 364.5 2S210.8 32.8 154.8 88.9c-56 56-86.9 130.5-86.9 209.7 0 39 7.5 76.8 21.7 111.8l29.3-11.8z" class="st1"/><path id="XMLID_19_" d="M148.1 386.8c-11.2-27.6-17.1-57.4-17.1-88.1 0-62.4 24.3-121 68.4-165.2 44.1-44.1 102.8-68.4 165.2-68.4s121 24.3 165.2 68.4c22.5 22.5 39.8 48.7 51.3 77.2l29.2-11.9c-13.2-32.4-32.8-62.2-58.3-87.6-50.1-50.1-116.6-77.6-187.4-77.6s-137.4 27.6-187.4 77.6c-50.1 50.1-77.6 116.6-77.6 187.4 0 34.8 6.7 68.6 19.4 100l29.1-11.8z" class="st2"/><path id="XMLID_26_" d="M148.1 386.8c-11.2-27.6-17.1-57.4-17.1-88.1 0-62.4 24.3-121 68.4-165.2 44.1-44.1 102.8-68.4 165.2-68.4s121 24.3 165.2 68.4c22.5 22.5 39.8 48.7 51.3 77.2l29.2-11.9c-13.2-32.4-32.8-62.2-58.3-87.6-50.1-50.1-116.6-77.6-187.4-77.6s-137.4 27.6-187.4 77.6c-50.1 50.1-77.6 116.6-77.6 187.4 0 34.8 6.7 68.6 19.4 100l29.1-11.8z" class="st1"/><path id="XMLID_21_" d="M177.3 374.9c-9.7-23.9-14.8-49.7-14.8-76.2 0-54 21-104.7 59.2-142.9s88.9-59.2 142.9-59.2 104.7 21 142.9 59.2c19.4 19.4 34.4 42.1 44.4 66.8l29.2-11.9c-11.6-28.6-28.9-54.8-51.3-77.2C485.7 89.4 427 65.1 364.6 65.1s-121 24.3-165.2 68.4C155.3 177.6 131 236.3 131 298.7c0 30.7 5.9 60.5 17.1 88.1l29.2-11.9z" style="fill:#cc5f7e"/><path id="XMLID_18_" d="M177.3 374.9c-9.7-23.9-14.8-49.7-14.8-76.2 0-54 21-104.7 59.2-142.9s88.9-59.2 142.9-59.2 104.7 21 142.9 59.2c19.4 19.4 34.4 42.1 44.4 66.8l29.2-11.9c-11.6-28.6-28.9-54.8-51.3-77.2C485.7 89.4 427 65.1 364.6 65.1s-121 24.3-165.2 68.4C155.3 177.6 131 236.3 131 298.7c0 30.7 5.9 60.5 17.1 88.1l29.2-11.9z" class="st1"/><path id="XMLID_24_" d="M235.7 351.2c-6.6-16.2-10.2-33.9-10.2-52.5 0-76.8 62.3-139.1 139.1-139.1 58.3 0 108.2 35.9 128.9 86.8l29.2-11.9c-8.5-20.9-21.1-40-37.5-56.4-32.2-32.2-75.1-50-120.6-50-45.6 0-88.4 17.7-120.6 50-32.2 32.2-50 75.1-50 120.6 0 22.4 4.3 44.2 12.5 64.4l29.2-11.9z" style="fill:#36c2e3"/><path id="XMLID_17_" d="M235.7 351.2c-6.6-16.2-10.2-33.9-10.2-52.5 0-76.8 62.3-139.1 139.1-139.1 58.3 0 108.2 35.9 128.9 86.8l29.2-11.9c-8.5-20.9-21.1-40-37.5-56.4-32.2-32.2-75.1-50-120.6-50-45.6 0-88.4 17.7-120.6 50-32.2 32.2-50 75.1-50 120.6 0 22.4 4.3 44.2 12.5 64.4l29.2-11.9z" class="st1"/><path id="XMLID_23_" d="M206.5 363c-8.2-20.2-12.5-41.9-12.5-64.4 0-45.6 17.7-88.4 50-120.6 32.2-32.2 75.1-50 120.6-50 45.6 0 88.4 17.7 120.6 50 16.4 16.4 29 35.6 37.5 56.4l29.2-11.9c-10-24.7-25-47.4-44.4-66.8-38.2-38.2-88.9-59.2-142.9-59.2s-104.7 21-142.9 59.2-59.2 88.9-59.2 142.9c0 26.6 5.1 52.3 14.8 76.2l29.2-11.8z" style="fill:#6d4f8d"/><path id="XMLID_1_" d="M206.5 363c-8.2-20.2-12.5-41.9-12.5-64.4 0-45.6 17.7-88.4 50-120.6 32.2-32.2 75.1-50 120.6-50 45.6 0 88.4 17.7 120.6 50 16.4 16.4 29 35.6 37.5 56.4l29.2-11.9c-10-24.7-25-47.4-44.4-66.8-38.2-38.2-88.9-59.2-142.9-59.2s-104.7 21-142.9 59.2-59.2 88.9-59.2 142.9c0 26.6 5.1 52.3 14.8 76.2l29.2-11.8z" class="st1"/><path id="XMLID_11_" d="M205.1 327.7h29.4" class="st6"/><path id="XMLID_12_" d="M227.6 327.7h29.3" class="st6"/><path id="XMLID_176_" d="m639.5 187-29.2 11.9-87.6 35.6-29.2 11.9c-11.2-27.6-31-50.8-56.1-66.2 6.6-8.8 15.8-15.8 26.6-20.2 8-3.3 16.9-5.1 26.2-5.1 4.9 0 9.7.5 14.4 1.5.4-.7.8-1.5 1.2-2.2 5.4-9.2 12.9-17 21.6-22.9 9.6-6.4 20.8-10.5 32.5-11.7 2.2-.2 4.4-.3 6.6-.3 17.7 0 34 6.5 46.4 17.4 10.6 15.9 19.5 32.8 26.6 50.3z" class="st7"/><path id="XMLID_16_" d="M647 174.9c-7.9 0-15.1 3.3-20.2 8.7-3.1-30.5-28.9-54.2-60.2-54.2-25.8 0-47.9 16.2-56.5 39-6.2-2.2-12.9-3.4-20-3.4-29.7 0-53.8 21.3-53.8 47.6 0 24.6 21.1 44.9 48.2 47.4 6.7 22.4 27.5 38.8 52.1 38.8 22.7 0 42.1-13.9 50.3-33.6 6.4 5.7 14.7 9.1 23.9 9.1 19.9 0 36-16.1 36-36 0-2.6-.3-5-.8-7.4h.8c15.4 0 27.9-12.5 27.9-27.9.2-15.6-12.3-28.1-27.7-28.1z" class="st1"/><path id="XMLID_175_" d="m235.7 351.2-29.2 11.9-58.4 23.7-29.2 11.9-29.2 11.9C75.4 375.6 68 337.7 68 298.8c0-6.7.2-13.3.7-19.9h2.7c5.2 0 10.3.5 15.3 1.5 4.4-5.9 9.4-11.1 15-15.7 10.2-8.4 22.2-14.4 35-17.6 6-1.5 12.2-2.4 18.5-2.6 1 0 2-.1 3.1-.1 3.8 0 7.6.2 11.3.7 10.7 1.4 20.8 4.7 30 9.5 10.5 5.5 19.9 13.2 27.5 22.3-1.1 7.1-1.7 14.4-1.7 21.8.1 18.6 3.7 36.3 10.3 52.5z" class="st7"/><path id="XMLID_13_" d="M348.5 385.4c-.7-20.2-17.6-36-37.8-35.3-1.9.1-3.8.3-5.7.6-8.2-21.8-29.5-36.9-54.1-36.1-5.3.2-10.3 1.1-15.1 2.6-7.7-37-41.2-64.2-80.2-62.9-27.4.9-51.1 15.6-64.6 37.3-7-2.1-14.4-3.1-22-2.8-38.3 1.3-68.3 33.4-67 71.7s33.4 68.3 71.7 67c2.3-.1 4.6-.3 6.9-.6 13.3 27.2 41.7 45.4 73.9 44.3 33.2-1.1 61-22.5 71.8-52 8.4 4.6 18.2 7.1 28.5 6.7 12.4-.4 23.8-4.9 32.8-12.1 6.8 6 15.8 9.6 25.6 9.3 20.1-.6 35.9-17.5 35.3-37.7z" class="st8"/><path id="XMLID_28_" d="M346.7 375.5c-4.6 14.3-17.7 24.8-33.6 25.4-9.8.3-18.8-3.2-25.6-9.3-9 7.2-20.4 11.7-32.8 12.1-10.3.3-20.1-2.1-28.5-6.7-10.8 29.4-38.5 50.8-71.8 52-32.2 1.1-60.5-17.2-73.9-44.3-2.3.3-4.6.5-6.9.6-35.3 1.2-65.3-24.2-70.8-58.2-.7 4.4-1 8.9-.9 13.6 1.3 38.3 33.4 68.3 71.7 67 2.3-.1 4.6-.3 6.9-.6 13.3 27.2 41.7 45.4 73.9 44.3 33.2-1.1 61-22.5 71.8-52 8.4 4.6 18.2 7.1 28.5 6.7 12.4-.4 23.8-4.9 32.8-12.1 6.8 6 15.8 9.6 25.6 9.3 20.2-.7 36-17.6 35.3-37.8 0-3.5-.7-6.9-1.7-10z" class="st9"/><path id="XMLID_96_" d="M348.5 385.4c-.7-20.2-17.6-36-37.8-35.3-1.9.1-3.8.3-5.7.6-8.2-21.8-29.5-36.9-54.1-36.1-5.3.2-10.3 1.1-15.1 2.6-7.7-37-41.2-64.2-80.2-62.9-27.4.9-51.1 15.6-64.6 37.3-7-2.1-14.4-3.1-22-2.8-38.3 1.3-68.3 33.4-67 71.7s33.4 68.3 71.7 67c2.3-.1 4.6-.3 6.9-.6 13.3 27.2 41.7 45.4 73.9 44.3 33.2-1.1 61-22.5 71.8-52 8.4 4.6 18.2 7.1 28.5 6.7 12.4-.4 23.8-4.9 32.8-12.1 6.8 6 15.8 9.6 25.6 9.3 20.1-.6 35.9-17.5 35.3-37.7z" class="st1"/><path id="XMLID_67_" d="m403.3 373.1 13.5 18 6.9-11.1z" class="st10"/><path id="XMLID_114_" d="m403.3 373.1 13.5 18 6.9-11.1z" class="st1"/><path id="XMLID_66_" d="m412.7 354.6 11 25.4 11.9-6.6z" class="st10"/><path id="XMLID_115_" d="m412.7 354.6 11 25.4 11.9-6.6z" class="st1"/><path id="XMLID_64_" d="M602.8 393.6c-9.5 1.2-30.8 2.2-55.2-6.6-33.1-11.9-50-9.9-57.3-7.7-2.5.7-5 1.6-7.5 2.7-21.6 10.1-30.9 35.9-20.7 57.4 6.4 13.7 19.1 22.4 33 24.4 0 0 .4.1 1.2.1.2 0 .4 0 .6.1 5.2.6 20.8 1.9 31.4-1.4 11-5.2-5-10.7-5-10.7s12.5 3.5 21.9-1.3c13.8-7.1-1.6-12.1-1.6-12.1s13.6 4.1 23.6-5.1c6.3-5.8.8-7.8-4.2-8.5 7 .1 18.6-.9 22.5-8.2 2.8-5.2-3.5-6.4-8.2-6.6 5.9-.2 16.4-1.4 22.4-6 2.8-2.2 4.7-4.1 6-5.7 1.6-2-.2-5.1-2.9-4.8z" class="st11"/><path id="XMLID_62_" d="M602.8 393.6c-9.5 1.2-30.8 2.2-55.2-6.6-33.1-11.9-50-9.9-57.3-7.7h0c-2.5.7-5 1.6-7.5 2.7-21.6 10.1-30.9 35.9-20.7 57.4 6.4 13.7 19.1 22.4 33 24.4h0s.4.1 1.2.1c.2 0 .4 0 .6.1 5.2.6 20.8 1.9 31.4-1.4 11-5.2-5-10.7-5-10.7s12.5 3.5 21.9-1.3c13.8-7.1-1.6-12.1-1.6-12.1s13.6 4.1 23.6-5.1c6.3-5.8.8-7.8-4.2-8.5 7 .1 18.6-.9 22.5-8.2 2.8-5.2-6.1-6.5-10.7-6.7 5.9-.2 18.9-1.3 24.9-5.9 2.8-2.2 4.7-4.1 6-5.7 1.6-2-.2-5.1-2.9-4.8z" class="st1"/><path id="XMLID_98_" d="M538.2 471.3s20.8 4.8 50.6 23.1c29.9 18.2 42.3 13.9 42.3 13.9" class="st12"/><path id="XMLID_107_" d="M595.9 516.6s-13.7-.5-27.3-18.2-19-26.2-24.7-26.6" class="st12"/><path id="XMLID_65_" d="M646.7 436.4c.9-1 1.7-2.7 1.4-4.4-.1-.4-.4-1.5-1.4-2.2-1-.8-2.4-1.1-3.9-.8 3-.7 4.9-3.4 4.5-6-.5-2.6-3.3-4.5-6.3-4.1 1.5-.2 2.7-1 3.4-2.1.6-1 .6-2.1.5-2.6-.2-1.7-1.6-3-2.8-3.6-2.6-1.3-5.9.1-8.7 1.3-5.5 2.3-8.9 5.8-11.3 8.3-1.8 1.9-4.3 4.7-6.6 8.6 3.5 2.8 6.8 4.6 9.1 5.7 3.1 1.5 7.5 3.5 13.5 3.8 3 .1 6.6.2 8.6-1.9z" class="st10"/><g id="XMLID_106_"><path id="XMLID_109_" d="M646.2 432c-.1-.4-.4-1.5-1.4-2.2-.2-.1-.4-.2-.6-.4-.3.7-.7 1.2-1.1 1.7-2 2.1-5.6 2-8.6 1.9-6-.3-10.4-2.3-13.5-3.8-1.6-.7-3.5-1.8-5.7-3.2-.6.9-1.2 1.8-1.8 2.8 3.5 2.8 6.8 4.6 9.1 5.7 3.1 1.5 7.5 3.5 13.5 3.8 3 .1 6.6.2 8.6-1.9 1.1-1 1.9-2.7 1.5-4.4z" class="st13"/><path id="XMLID_167_" d="M640.9 411.6c-.7 1.1-1.9 1.9-3.4 2.1 2.2-.3 4.3.7 5.4 2.2.2-.7.1-1.3.1-1.6-.2-1.3-1-2.4-1.9-3.1-.1.1-.1.2-.2.4z" class="st13"/></g><g id="XMLID_99_"><path id="XMLID_100_" d="M613.6 428.7c.3.2.6.4.9.7 1.3-1.8 2.6-3.2 3.7-4.3 2.4-2.5 5.8-5.9 11.3-8.3 2.8-1.2 6.1-2.5 8.7-1.3 1 .5 2.1 1.5 2.6 2.8.7-.4 1.3-.9 1.7-1.5.6-1 .6-2.1.5-2.6-.2-1.7-1.6-3-2.8-3.6-2.6-1.3-5.9.1-8.7 1.3-5.5 2.3-8.9 5.8-11.3 8.3-1.8 1.9-4.3 4.7-6.6 8.5z" style="fill:#f96291"/></g><path id="XMLID_8_" d="M646.7 436.4c.9-1 1.7-2.7 1.4-4.4-.1-.4-.4-1.5-1.4-2.2-1-.8-2.4-1.1-3.9-.8 3-.7 4.9-3.4 4.5-6h0c-.5-2.6-3.3-4.5-6.3-4.1 1.5-.2 2.7-1 3.4-2.1.6-1 .6-2.1.5-2.6-.2-1.7-1.6-3-2.8-3.6-2.6-1.3-5.9.1-8.7 1.3-5.5 2.3-8.9 5.8-11.3 8.3-1.8 1.9-4.3 4.7-6.6 8.6h0c3.5 2.8 6.8 4.6 9.1 5.7 3.1 1.5 7.5 3.5 13.5 3.8 3 .1 6.6.2 8.6-1.9z" class="st1"/><path id="XMLID_57_" d="M615.4 428.8s-45.5 4.1-92.1-29.6c-15.9-11.5-26.3-18.9-33.1-23.5-3.3-3-7.1-5.6-11.3-7.5-1.5-.9-1.4-.7-1.4-.7-5.6-2.4-11.9-3.8-18.4-3.8-25.6 0-46.4 20.8-46.4 46.4 0 17.4 9.6 32.6 23.8 40.5 0 0 .1.1.3.1 1.8 1 3.7 1.8 5.6 2.6 21 8.8 95.2 33.3 173-24.5z" style="fill:#f1cb9c"/><path id="XMLID_95_" d="M459.1 369.1c6.5 0 12.8 1.4 18.4 3.8 0 0-.1-.2 1.4.7 4.1 2 7.9 4.5 11.3 7.5 6.8 4.7 17.1 12 33.1 23.5 36.2 26.1 74 27.2 88.1 27.4 2.1-1.5 1.9-.6 4-2.2 0 0-45.5 4.1-92.1-29.6-15.9-11.5-26.3-18.9-33.1-23.5-3.3-3-7.1-5.6-11.3-7.5-1.5-.9-1.4-.7-1.4-.7-5.6-2.4-11.9-3.8-18.4-3.8-25.6 0-46.4 20.8-46.4 46.4 0 .7 0 1.3.1 1.9 1.3-24.5 21.5-43.9 46.3-43.9z" style="fill:#f8e4c1"/><path id="XMLID_68_" d="M604.1 428.7C531.6 474 464.9 452 445.2 443.6c-1.9-.7-3.8-1.6-5.6-2.6-.2-.1-.3-.1-.3-.1-14.2-7.9-23.8-23.1-23.8-40.5 0-2.8.3-5.5.7-8.2-2.3 5.5-3.6 11.5-3.6 17.8 0 17.4 9.6 32.6 23.8 40.5 0 0 .1.1.3.1 1.8 1 3.7 1.8 5.6 2.6 21 8.9 95.2 33.3 173-24.5.1.1-4.1.4-11.2 0z" class="st11"/><path id="XMLID_112_" d="M615.4 428.8s-45.5 4.1-92.1-29.6c-15.9-11.5-26.3-18.9-33.1-23.5-3.3-3-7.1-5.6-11.3-7.5-1.5-.9-1.4-.7-1.4-.7h0c-5.6-2.4-11.9-3.8-18.4-3.8-25.6 0-46.4 20.8-46.4 46.4 0 17.4 9.6 32.6 23.8 40.5h0s.1.1.3.1c1.8 1 3.7 1.8 5.6 2.6 21 8.8 95.2 33.3 173-24.5z" class="st1"/><path id="XMLID_63_" d="M582.5 471.6c-9.1-3-28.8-11.1-47.1-29.4-24.9-24.9-41.1-30.3-48.6-31.3-2.6-.5-5.2-.7-7.9-.7-23.8 0-43.2 19.3-43.2 43.2 0 15.1 7.8 28.4 19.5 36.1 0 0 .4.2 1 .6.2.1.3.2.5.3 4.4 2.7 18 10.6 29 12.1 12.2 0 0-11.8 0-11.8s9.8 8.5 20.3 8.1c15.5-.5 3.7-11.7 3.7-11.7s10.5 9.5 23.5 5.4c8.2-2.6 4-6.7-.2-9.5 6.3 3.1 17.2 7.2 23.9 2.2 4.7-3.5-.5-7.3-4.6-9.5 5.5 2.3 15.4 5.7 22.8 4.1 3.5-.8 6-1.7 7.9-2.6 2.4-1.1 2.1-4.7-.5-5.6z" style="fill:#efab89"/><g id="XMLID_27_"><path id="XMLID_101_" d="M486.6 493.4c-11-1.5-24.6-9.4-29-12.1-.2-.1-.3-.2-.5-.3-.6-.4-1-.6-1-.6-11.7-7.7-19.5-21-19.5-36.1v-.3c-.7 3-1 6.1-1 9.3 0 15.1 7.8 28.4 19.5 36.1 0 0 .4.2 1 .6.2.1.3.2.5.3 4.4 2.7 18 10.6 29 12.1 8.4 0 5.2-5.6 2.5-9.1-.5.1-1 .1-1.5.1z" class="st11"/><path id="XMLID_103_" d="M582.5 471.6c-1.1-.4-2.4-.8-3.9-1.4-.8.2-2-.1-2.6.6-3.7 5.2-24.3 2.7-29.7.4 4.1 2.2 3.3 3.3 11.6 4.9.7.1-1.1.7-1.7 1 5.6 2 13 3.9 18.9 2.6 3.5-.8 6-1.7 7.9-2.6 2.4-1 2.1-4.6-.5-5.5z" class="st11"/><path id="XMLID_111_" d="M506.9 489.7c-10.6.4-25.5-7.4-25.5-7.4-2.3 1.7-3.5-.5 7.6 10.8 3.8 2.5 10.1 5.8 16.8 5.6 11.3-.4 8.1-6.4 5.5-9.6-1 .4-2.5.6-4.4.6z" class="st11"/><path id="XMLID_118_" d="M533.8 483.6c-12.9 3.8-28.2-3.3-28.2-3.3s.9 3.7 6.4 8.6c3.8 2.5 11.8 6.5 21.1 3.6 7.7-2.4 4.6-6.2.7-8.9z" class="st11"/><path id="XMLID_119_" d="M555.3 477.6c-5.3 4.7-23.1 1.2-28.7-1.5 4.2 2.7 4.2 4.9 7.5 7.4h-.1c6.4 3 16.5 6.4 22.8 1.7 3.6-2.6 1.6-5.4-1.5-7.6z" class="st11"/></g><path id="XMLID_113_" d="M582.5 471.6c-9.1-3-28.8-11.1-47.1-29.4-24.9-24.9-41.1-30.3-48.6-31.3h0c-2.6-.5-5.2-.7-7.9-.7-23.8 0-43.2 19.3-43.2 43.2 0 15.1 7.8 28.4 19.5 36.1h0s.4.2 1 .6c.2.1.3.2.5.3 4.4 2.7 18 10.6 29 12.1 12.2 0 0-11.8 0-11.8s9.8 8.5 20.3 8.1c15.5-.5 3.7-11.7 3.7-11.7s10.5 9.5 23.5 5.4c8.2-2.6 4-6.7-.2-9.5 6.3 3.1 17.2 7.2 23.9 2.2 4.7-3.5-.5-7.3-4.6-9.5 5.5 2.3 15.4 5.7 22.8 4.1 3.5-.8 6-1.7 7.9-2.6 2.4-1.1 2.1-4.7-.5-5.6z" class="st1"/><path id="XMLID_30_" d="M440.4 390.1s.6 11 10.8 11c8.9 0 11.4-4.2 11.4-4.2" class="st1"/><path id="XMLID_58_" d="m437 396.8 5-1.2" class="st1"/><path id="XMLID_59_" d="m442 402.4 2.4-3.6" class="st1"/><path id="XMLID_60_" d="M449.6 401.1v4.1" class="st1"/><path id="XMLID_61_" d="m457.9 400.1 1.9 5.1" class="st1"/><path id="XMLID_69_" d="M465.1 430.5s3.4 3.9 7.2 0" class="st18"/><path id="XMLID_70_" d="M453.7 448.3s6.9 2.8 9.7-3.7" class="st18"/><path id="XMLID_71_" d="M454.4 465.2s4.9 1.9 6.8-2.6" class="st18"/><path id="XMLID_74_" d="M495.3 443.7s4.2 3.2 7.3-.6" class="st18"/><path id="XMLID_77_" d="M507.8 468.2s4.2 3.2 7.3-.6" class="st18"/><path id="XMLID_78_" d="M516.9 454.7s4.2 3.2 7.3-.6" class="st18"/><path id="XMLID_75_" d="M490.6 456.9s4.2 3.2 7.3-.6" class="st18"/><path id="XMLID_9_" d="M526.8 391.7s4.2 3.2 7.3-.6" class="st18"/><path id="XMLID_7_" d="M555.3 414.3s4.2 3.2 7.3-.6" class="st18"/><path id="XMLID_6_" d="M555.4 403.9s4.9 1.9 6.8-2.7" class="st18"/><path id="XMLID_3_" d="M540.6 401.7s5.2.6 5.9-4.3" class="st18"/><path id="XMLID_76_" d="M476.9 469.8s5 1.7 6.7-2.8" class="st18"/><path id="XMLID_72_" d="M475.2 442.2s5.4 3.9 9.2-1.1" class="st18"/><path id="XMLID_73_" d="M472.3 454.8s5.4 3.9 9.2-1.1" class="st18"/><path id="XMLID_79_" d="M479.9 483s.8 2.7 5.7 7.6" class="st1"/><path id="XMLID_80_" d="M509.6 487.1s-2.1-1.3-5.3-6" class="st1"/><path id="XMLID_81_" d="M533 483s-4.3-3-7.8-6.9" class="st1"/><path id="XMLID_110_" d="M552.3 475.8s-6.7-2.8-8.5-4.6" class="st1"/><path id="XMLID_2_" d="M382.8 291.9v21.5c-.5-.1-1.1-.2-1.7-.2-3.9 0-7.1 2.7-7.1 6.1s3.2 6.1 7.1 6.1 7.1-2.7 7.1-6.1v-23.7l15.6-6.6v17.1c-.5-.1-1.1-.2-1.7-.2-3.9 0-7.1 2.7-7.1 6.1s3.2 6.1 7.1 6.1 7.1-2.7 7.1-6.1v-31.3l-26.4 11.2z" class="st10"/><path id="XMLID_123_" d="M382.8 291.9h0v21.5c-.5-.1-1.1-.2-1.7-.2-3.9 0-7.1 2.7-7.1 6.1s3.2 6.1 7.1 6.1 7.1-2.7 7.1-6.1v-23.7l15.6-6.6v17.1c-.5-.1-1.1-.2-1.7-.2-3.9 0-7.1 2.7-7.1 6.1s3.2 6.1 7.1 6.1 7.1-2.7 7.1-6.1v-31.3l-26.4 11.2z" class="st19"/><path id="XMLID_121_" d="m381.5 204.2-7.2 25.7c-.3 1.2-1.6 1.8-2.8 1.5-5.1-1.4-10.3 1-11.5 5.4s1.9 9.1 7 10.5 10.3-1 11.5-5.4l8.2-29.6c.2-.8 1-1.5 1.8-1.6l18-2.3c1.6-.2 2.8 1.2 2.4 2.8l-4.7 16.8c-.3 1.2-1.6 1.8-2.8 1.5-5.1-1.4-10.3 1-11.5 5.4s1.9 9.1 7 10.5 10.3-1 11.5-5.4l9.2-33 .7-2.7.5-1.9c.4-1.5-.8-3-2.4-2.8l-34.9 4.6z" style="fill:#21e8a6"/><path id="XMLID_120_" d="M381.5 204.2h0l-7.2 25.7c-.3 1.2-1.6 1.8-2.8 1.5h0c-5.1-1.4-10.3 1-11.5 5.4s1.9 9.1 7 10.5 10.3-1 11.5-5.4l8.2-29.6c.2-.8 1-1.5 1.8-1.6l18-2.3c1.6-.2 2.8 1.2 2.4 2.8l-4.7 16.8c-.3 1.2-1.6 1.8-2.8 1.5h0c-5.1-1.4-10.3 1-11.5 5.4s1.9 9.1 7 10.5 10.3-1 11.5-5.4l9.2-33 .7-2.7.5-1.9c.4-1.5-.8-3-2.4-2.8l-34.9 4.6z" class="st19"/><path id="XMLID_122_" d="m395.8 336.8-.8 1.2c-.8 1.2-1.9 2.1-3.1 2.8l-6.5 3.7.9 3.1 3.5 11.5c-.4 0-.7.1-1.1.2-2.1.6-3.4 2.6-2.9 4.5.5 1.8 2.7 2.8 4.9 2.2 2-.6 2.5-1.2 2.2-2.9l.1-1-3.5-12.5 4.4-2.6c1.4-.8 2.6-1.9 3.5-3.3l.4-.6-2-6.3z" class="st2"/><path id="XMLID_125_" d="m396.8 336.8-.8 1.2c-.8 1.2-1.9 2.1-3.1 2.8l-6.5 3.7.9 3.1h0l3.5 11.5c-.4 0-.7.1-1.1.2-2.1.6-3.4 2.6-2.9 4.5.5 1.8 2.7 2.8 4.9 2.2 2-.6 1.2-1.4.9-3.2h0l-3.8-12.6 6.1-3.2c1.4-.8 2.6-1.9 3.5-3.3l.4-.6-2-6.3z" class="st19"/><path id="XMLID_161_" d="M94.9 181.6c2.2.5 4.4.7 6.7.7 1.8 0 3.5-.2 5.3-.5 16.8-2.9 28.1-18.9 25.1-35.7-1.3-7.2-5-13.5-10.2-18-13.1 18.5-23.9 38.3-32.3 59.1 2.1-1.7 3.9-3.5 5.4-5.6z" class="st7"/><path id="XMLID_158_" d="M122.2 147.9c-2-11.4-12.8-19-24.1-17-.2 0-.4.1-.5.1-5-13.1-18.7-21.3-33.1-18.8-12.4 2.2-21.7 11.7-24.1 23.3-3.5-1.9-7.6-2.7-11.8-1.9-9.9 1.7-16.5 11.1-14.8 21s11.1 16.5 21 14.8c3.3-.6 6.2-2 8.6-4 2.3 13.2 15 22.1 28.2 19.8 9-1.6 16.1-7.9 18.9-16 4.2 2.7 9.4 3.9 14.8 3 11.3-2.2 18.9-13 16.9-24.3z" class="st1"/><path id="XMLID_15_" d="M647.6 174.4c-7.9 0-15.1 3.3-20.2 8.7-3.1-30.5-28.9-54.2-60.2-54.2-25.8 0-47.9 16.2-56.5 39-6.2-2.2-12.9-3.4-20-3.4-29.7 0-53.8 21.3-53.8 47.6 0 24.6 21.1 44.9 48.2 47.4 6.7 22.4 27.5 38.8 52.1 38.8 22.7 0 42.1-13.9 50.3-33.6 6.4 5.7 14.7 9.1 23.9 9.1 19.9 0 36-16.1 36-36 0-2.6-.3-5-.8-7.4h.8c15.4 0 27.9-12.5 27.9-27.9.2-15.6-12.3-28.1-27.7-28.1z" class="st8"/><path id="XMLID_29_" d="M647 206.8h-.8c.5 2.4.8 4.9.8 7.4 0 19.9-16.1 36-36 36-9.2 0-17.6-3.4-23.9-9.1-8.2 19.7-27.6 33.6-50.3 33.6-24.6 0-45.4-16.4-52.1-38.8-22.5-2.1-40.9-16.4-46.5-35.4-1.1 3.8-1.7 7.9-1.7 12 0 24.6 21.1 44.9 48.2 47.4 6.7 22.4 27.5 38.8 52.1 38.8 22.7 0 42.1-13.9 50.3-33.6 6.4 5.7 14.7 9.1 23.9 9.1 19.9 0 36-16.1 36-36 0-2.6-.3-5-.8-7.4h.8c15.4 0 27.9-12.5 27.9-27.9 0-4.3-1-8.4-2.7-12-4.5 9.4-14.1 15.9-25.2 15.9z" class="st9"/><path id="XMLID_4_" d="M122.2 147.9c-2-11.4-12.8-19-24.1-17-.2 0-.4.1-.5.1-5-13.1-18.7-21.3-33.1-18.8-12.4 2.2-21.7 11.7-24.1 23.3-3.5-1.9-7.6-2.7-11.8-1.9-9.9 1.7-16.5 11.1-14.8 21s11.1 16.5 21 14.8c3.3-.6 6.2-2 8.6-4 2.3 13.2 15 22.1 28.2 19.8 9-1.6 16.1-7.9 18.9-16 4.2 2.7 9.4 3.9 14.8 3 11.3-2.2 18.9-13 16.9-24.3z" class="st8"/><path id="XMLID_157_" d="M106.9 163.3c-5.3.9-10.6-.3-14.8-3-2.8 8.1-9.8 14.4-18.9 16-13.3 2.3-25.9-6.6-28.2-19.8-2.4 2-5.3 3.4-8.6 4-9.9 1.7-19.3-4.9-21-14.8-.1-.7-.2-1.4-.2-2-1.5 3.2-2.1 7-1.4 10.8 1.7 9.9 11.1 16.5 21 14.8 3.3-.6 6.2-2 8.6-4 2.3 13.2 15 22.1 28.2 19.8 9-1.6 16.1-7.9 18.9-16 4.2 2.7 9.4 3.9 14.8 3 10.3-1.8 17.5-10.9 17.3-21.1-2.8 6.2-8.5 11-15.7 12.3z" class="st9"/></svg>