<svg xmlns="http://www.w3.org/2000/svg" width="552.231" height="607.302"><path d="M299.394 429.28v62.046h39.246z" style="fill:#ff7f2a;stroke:none" transform="translate(-104.55 -279.537)"/><path d="M360.413 429.28v62.046h-39.247z" style="fill:#ff7f2a;stroke:none" transform="translate(-104.55 -279.537)"/><path d="M335.66 477.248c-23.166-.03-58.538 18.891-75.061 72.946-12.339 55.346-.068 108.615 58.231 133.626 34.928 10.845 72.464 13.188 120.73-19.436 25.46-18.03 46.234-47.183 30.275-54.945-8.833-3.294-12.626 7.094-18.315 12.334 1.815-7.22 5.891-14.657-2.242-20.931-9.762-6.933-17.481 5.96-17.568 10.092-2.016 14.547-6.663 21.698-25.043 23.921-23.373-.304-40.18-9.924-42.199-40.523 3.218-31.994 23.014-47.376 23.943-64.51 1.266-23.366-20.49-51.184-52.751-52.574z" style="fill:#b588c1;fill-opacity:1;stroke:none" transform="translate(-104.55 -279.537)"/><path d="M318.83 615.98c8.786 14.896 20.713 17.62 33.453 17.193 10.691-.109 19.578 1.541 10.653 20.558 7.282-8.81 14.992-15.628 25.23-10.653 10.946 6.254 5.85 23.567-.935 29.342-14.541 15.303-40.616 12.768-54.384-.374-13.416-15.318-15.973-34.798-14.017-56.066zm-2.62-109.745c29.606 1.456 53.424 4.275 25.279 19.34 45.794-13.415 6.24-21.685-25.28-19.34z" style="fill:#74439e;fill-opacity:1;stroke:none" transform="translate(-104.55 -279.537)"/><path d="M232.644 356.408h1.081v-69.65h-1.081v69.65z" style="fill:#000;fill-rule:nonzero;stroke:#000;stroke-width:0;stroke-linecap:butt;stroke-linejoin:round;stroke-miterlimit:10" transform="translate(-.43 -268.341)"/><path d="M232.644 384.384h1.081V286.76h-1.081v97.625z" style="fill:#000;stroke:#000;stroke-width:2.04128528;stroke-linecap:butt;stroke-linejoin:round;stroke-miterlimit:10" transform="translate(-.43 -268.341)"/><path d="M223.433 375.892c-3.535.437-7.148 1.89-10.258 4.31-3.535 2.582-5.95 6.03-6.728 9.566-.17 1.129-.17 3.106.086 3.971.775 3.025 3.193 4.915 6.81 5.694 1.03.169 3.635.169 4.92 0 3.275-.61 6.64-2.08 9.561-4.227 3.449-2.583 5.867-6.031 6.646-9.566.169-1.13.169-3.106-.087-4.054-.778-2.838-3.11-4.75-6.559-5.525-.943-.169-3.361-.255-4.391-.169z" style="fill:#000;fill-rule:evenodd;stroke:#000;stroke-width:0;stroke-linecap:butt;stroke-linejoin:round;stroke-miterlimit:10" transform="translate(-.43 -268.341)"/><path d="M273.523 345.759h1.033v-68.634h-1.033v68.634z" style="fill:#000;stroke:#000;stroke-width:1.67260802;stroke-linecap:butt;stroke-linejoin:round;stroke-miterlimit:10" transform="translate(-.43 -268.341)"/><path d="M264.312 338.926c-3.535.437-7.147 1.89-10.258 4.31-3.535 2.582-5.95 6.03-6.728 9.566-.169 1.129-.169 3.106.087 3.971.774 3.025 3.193 4.915 6.81 5.694 1.03.169 3.634.169 4.919 0 3.275-.61 6.641-2.08 9.562-4.227 3.448-2.583 5.867-6.031 6.645-9.566.17-1.13.17-3.106-.086-4.054-.779-2.838-3.11-4.75-6.56-5.525-.942-.169-3.361-.255-4.39-.169z" style="fill:#000;fill-rule:evenodd;stroke:#000;stroke-width:0;stroke-linecap:butt;stroke-linejoin:round;stroke-miterlimit:10" transform="translate(-.43 -268.341)"/><path d="m274.96 268.341-43.57 15.429.607 9.68 43.493-15.312-.53-9.797z" style="fill:#000;fill-opacity:1;fill-rule:evenodd;stroke:none" transform="translate(-.43 -268.341)"/><path d="m330.692 687.117-7.977 57.359 10.845.845z" style="fill:#000;stroke:#000;stroke-width:1.00351202px;stroke-linecap:butt;stroke-linejoin:miter;stroke-opacity:1" transform="translate(-104.55 -279.537)"/><path d="m358.26 690.99 1.89 55.8 10.286-.564z" style="fill:#000;stroke:#000;stroke-width:1.00470519px;stroke-linecap:butt;stroke-linejoin:miter;stroke-opacity:1" transform="translate(-104.55 -279.537)"/><path d="M656.28 701.66v63.797c-63.43-40.105-118.847-40.57-174.87-16.223-30.34 9.77-54.01 18.718-103.557 18.199-43.325-.862-75.104-16.43-126.51-12.875-37.76 3.672-77.024 7.129-96.023 51.235.203-10.399-.637-28.57 26.962-48.517 10.498-7.69 34.496-16.49 90.046-19.2 87.54-.24 84.128 24.567 197.913-15.833 67.914-29.104 131.793-42.996 186.039-20.583z" style="fill:#4b3c34;fill-opacity:1;stroke:#4b3c34;stroke-width:1px;stroke-linecap:butt;stroke-linejoin:miter;stroke-opacity:1" transform="translate(-104.55 -279.537)"/><path d="M598.128 689.763c14.493-13.206 30.903-21.718 38.345-52.2 4.755-20.264-11.862-25.927-22.951-10.076-16.673 29.003-13.321 43.702-15.394 62.276zM475.2 752.316c14.494 13.205 30.904 21.717 38.346 52.2 4.755 20.264-11.862 25.926-22.951 10.075-16.673-29.002-13.321-43.701-15.394-62.275z" style="fill:#3c7040;fill-opacity:1;stroke:#3c7040;stroke-width:1px;stroke-linecap:butt;stroke-linejoin:miter;stroke-opacity:1" transform="translate(-104.55 -279.537)"/><path d="M596.566 689.524c-19.434-11.088-40.659-17.186-53.508-46.647-8.305-19.614 11.459-27.762 27.024-13.514 24.03 26.605 21.684 41.844 26.484 60.161z" style="fill:#3c7040;fill-opacity:1;stroke:#3c7040;stroke-width:1.11893594px;stroke-linecap:butt;stroke-linejoin:miter;stroke-opacity:1" transform="translate(-104.55 -279.537)"/><path d="M157.34 807.614c19.587-.911 37.21-6.496 64.026 9.796 17.691 10.967 9.945 26.721-9.104 23.354-32.298-8.718-40.322-21.482-54.921-33.15zm-2.505.712c7.887 17.951 19.43 32.39 13.86 63.27-3.877 20.45-23.144 18.881-26.846-.106-5.096-31.869 6.645-45.06 12.986-63.164z" style="fill:#3c7040;fill-opacity:1;stroke:#3c7040;stroke-width:1px;stroke-linecap:butt;stroke-linejoin:miter;stroke-opacity:1" transform="translate(-104.55 -279.537)"/><path d="M153.008 807.225c-9.272 12.232-13.22 24.254-28.209 35.172-14.423 7.806-25.536-1.528-16.78-11.888 14.691-19.232 29.022-22.011 44.989-23.284z" style="fill:#3c7040;fill-opacity:1;stroke:#3c7040;stroke-width:.73679388px;stroke-linecap:butt;stroke-linejoin:miter;stroke-opacity:1" transform="translate(-104.55 -279.537)"/></svg>